<svg id="b612e0a6-9d93-42e3-903c-f757e50f6025" data-name="Layer 1" xmlns="http://www.w3.org/2000/svg" viewBox="0 0 901.8 360"><title>A2I2</title><g id="aae96ed1-8a67-4b5a-9225-bff571454ec4" data-name="BRAND-PRES"><g id="a3960e43-f489-489f-b3ea-8f20fcd715ec" data-name="LOGOS"><g id="aef731e1-342a-41bd-9da8-519e7c3249be" data-name="Group-2"><path id="a7b5521b-8511-4f9f-801c-64cd20aef7e3" data-name="A2I2 Logotype" d="M1231,70h204.16a9,9,0,0,1,9,9V283.88a9,9,0,0,1-9,9H1231a9,9,0,0,1-9-9V79A9,9,0,0,1,1231,70Zm147.43,178.3c1.1,0,2-.93,2.63-2.81a32.63,32.63,0,0,0,1.49-6.45q.49-3.63.66-7.44c.11-2.53.16-4.46.16-5.79a10.72,10.72,0,0,0-1.48-5.29c-1-1.76-2.25-2.65-3.79-2.65h-51.76q15.83-16.2,25.55-27.78a198.43,198.43,0,0,0,15-19.84,62.62,62.62,0,0,0,7.09-14.06,35.2,35.2,0,0,0,1.81-10.42q0-11.58-4.29-19.68A36.37,36.37,0,0,0,1360.12,113a48.86,48.86,0,0,0-16.65-7.27,86.3,86.3,0,0,0-20.44-2.32,122.16,122.16,0,0,0-12.86.83,186.51,186.51,0,0,0-19.45,3.47,4.25,4.25,0,0,0-3.3,3.31,10.77,10.77,0,0,0,0,5.29q.33,1.65,1.32,5.13c.66,2.31,1.38,4.63,2.14,6.94a30.22,30.22,0,0,0,2.64,6c1,1.65,2,2.37,3.13,2.15q6.27-.66,12.7-1.49a97.06,97.06,0,0,1,12.36-.83,36.25,36.25,0,0,1,13.85,2.32q5.6,2.31,5.6,9.26a20,20,0,0,1-1.81,7.61q-1.81,4.29-7.91,12.23t-17.81,20.51q-11.7,12.57-31.48,31.75a13.63,13.63,0,0,0-1.82,4.47c-.54,2.09-1,4.35-1.48,6.78s-.77,4.74-1,6.95-.33,3.74-.33,4.63a18.8,18.8,0,0,0,.83,4.63q.83,3,4.45,3ZM1615.84,70H1820a9,9,0,0,1,9,9V283.88a9,9,0,0,1-9,9H1615.84a9,9,0,0,1-9-9V79A9,9,0,0,1,1615.84,70Zm147.43,178.3c1.09,0,2-.93,2.63-2.81a32.63,32.63,0,0,0,1.49-6.45q.49-3.63.66-7.44c.11-2.53.16-4.46.16-5.79a10.72,10.72,0,0,0-1.48-5.29c-1-1.76-2.26-2.65-3.79-2.65h-51.77q15.82-16.2,25.56-27.78a198.43,198.43,0,0,0,15-19.84,62.09,62.09,0,0,0,7.08-14.06,35.24,35.24,0,0,0,1.82-10.42q0-11.58-4.29-19.68A36.56,36.56,0,0,0,1745,113a48.86,48.86,0,0,0-16.65-7.27,86.36,86.36,0,0,0-20.44-2.32,122,122,0,0,0-12.86.83,186.06,186.06,0,0,0-19.45,3.47,4.25,4.25,0,0,0-3.3,3.31,10.77,10.77,0,0,0,0,5.29q.33,1.65,1.32,5.13c.66,2.31,1.37,4.63,2.14,6.94a30.22,30.22,0,0,0,2.64,6c1,1.65,2,2.37,3.13,2.15q6.27-.66,12.7-1.49a97.06,97.06,0,0,1,12.36-.83,36.28,36.28,0,0,1,13.85,2.32q5.6,2.31,5.6,9.26a20,20,0,0,1-1.81,7.61q-1.82,4.29-7.92,12.23t-17.8,20.51q-11.7,12.57-31.48,31.75a13.63,13.63,0,0,0-1.82,4.47q-.83,3.14-1.48,6.78c-.44,2.43-.77,4.74-1,6.95s-.33,3.74-.33,4.63a19.18,19.18,0,0,0,.82,4.63q.83,3,4.46,3ZM1161,418.37l-27-81.88H1015.09L986.6,419.83q-2.42,7.26-14.73,8.72A224.7,224.7,0,0,1,945.55,430,35.49,35.49,0,0,1,933,427.82q-5.79-2.18-5.79-8.48a8.05,8.05,0,0,1,.24-1.94c.16-.64.4-1.45.72-2.42L1046.49,80.17q1-3.39,6-5.32a54.5,54.5,0,0,1,11.59-2.91q6.53-1,13.53-1.46T1090,70a13.59,13.59,0,0,1,7.73,2.66,16,16,0,0,1,5.8,8L1220.35,415c.32,1,.56,1.78.72,2.42a7.6,7.6,0,0,1,.25,1.94q0,6.3-6,8.48A36.12,36.12,0,0,1,1203,430a198.51,198.51,0,0,1-27.77-1.7Q1163.37,426.61,1161,418.37Zm-89.83-256.31-41,124h88.86l-41-124a42.91,42.91,0,0,1-2.17-8.48c-.49-3.07-1-5.89-1.7-8.48a45.11,45.11,0,0,0-1.2,8.48A28.45,28.45,0,0,1,1071.12,162.06Zm483.35,254.86a11.77,11.77,0,0,1-4.34,9.45A16,16,0,0,1,1539.5,430q-4.35,0-11.59-.48t-14.25-1.46a46.48,46.48,0,0,1-12.07-3.15c-3.38-1.45-5.07-3.15-5.07-5.08V80.17c0-1.93,1.69-3.63,5.07-5.08a46.48,46.48,0,0,1,12.07-3.15q7-1,14.25-1.46T1539.5,70a15.38,15.38,0,0,1,10.63,3.88,12,12,0,0,1,4.34,9.2Z" transform="translate(-927.2 -70)"/></g></g></g></svg>