<svg id="a692978e-39e7-4792-9c51-ede2acb1160c" data-name="Layer 1" xmlns="http://www.w3.org/2000/svg" viewBox="0 0 500.2 500"><title>Deakin</title><g id="bed79fc6-4ca2-4318-b2c2-08ada91a5299" data-name="BRAND-PRES"><g id="b6408883-0b8c-41a3-ae71-45ed80dbef95" data-name="LOGOS"><g id="b6e7a41f-f20a-41ba-956f-2d8d468fb92a" data-name="Group"><path id="f0aac57d-23c8-4850-a3a9-14ee2c3aa8d7" data-name="DEAKIN Logo" d="M1651.9,493.1h.2c134.1-.1,243.1-109.3,242.9-243.3,0-133.9-109.1-242.9-243.3-242.9a243.26,243.26,0,0,0-243,243.4C1408.9,384.2,1518,493.1,1651.9,493.1Zm0,6.9c-137.7,0-249.9-112-250-249.8A250.09,250.09,0,0,1,1651.8,0c137.9,0,250.1,112,250.3,249.8s-112,250.1-249.8,250.2ZM1523.3,338.8V315c0-.2.2-.4.5-.6a3.92,3.92,0,0,1,1.4-.4,8.75,8.75,0,0,1,1.6-.2,5.74,5.74,0,0,1,1.2-.1,1.29,1.29,0,0,1,1.1.5,1.61,1.61,0,0,1,.5,1.1v23.8a20,20,0,0,1-.9,6.5,9.27,9.27,0,0,1-7,6.6,23.51,23.51,0,0,1-6.2.7h-.4a22.25,22.25,0,0,1-6.1-.7,10.9,10.9,0,0,1-4.4-2.3,10.77,10.77,0,0,1-2.6-4.3,20,20,0,0,1-.9-6.5V315c0-.2.2-.4.5-.6a4,4,0,0,1,1.3-.4,7.77,7.77,0,0,1,1.6-.2,6.15,6.15,0,0,1,1.3-.1,1.72,1.72,0,0,1,1.6,1.6v23.5a22.09,22.09,0,0,0,.3,3.9,4.85,4.85,0,0,0,1.2,2.6,6.13,6.13,0,0,0,2.3,1.5,12.72,12.72,0,0,0,3.7.5h.4a13.46,13.46,0,0,0,3.8-.5,4.94,4.94,0,0,0,2.4-1.5,6.36,6.36,0,0,0,1.3-2.6A11.55,11.55,0,0,0,1523.3,338.8Zm39.5,2.4V314.7c0-.2.2-.4.6-.5s.9-.2,1.4-.3,1-.1,1.6-.2h1.3c.9,0,1.4.5,1.4,1.6v36.2a1.39,1.39,0,0,1-.5,1,2.1,2.1,0,0,1-1.1.4h-1.1a3.4,3.4,0,0,1-1.4-.2c-.5-.1-.9-.2-1.3-.3a1.23,1.23,0,0,1-.8-.5l-17.1-26.4v25.9a1.1,1.1,0,0,1-.5,1,1.5,1.5,0,0,1-1.1.4h-1.3a7.77,7.77,0,0,1-1.6-.2,5,5,0,0,1-1.3-.4c-.4-.1-.5-.3-.5-.5V314.8c0-.2.2-.4.5-.6a5,5,0,0,1,1.3-.3c.5-.1,1-.1,1.5-.2h1.3a1.69,1.69,0,0,1,1,.3,5.72,5.72,0,0,1,.7.8Zm23.2,10.3c0,.5-.1.8-.5,1a1.5,1.5,0,0,1-1.1.4h-1.3a8.75,8.75,0,0,1-1.6-.2,5,5,0,0,1-1.3-.4c-.4-.1-.6-.3-.6-.5V314.9q0-.3.6-.6a5,5,0,0,1,1.3-.3c.5-.1,1-.1,1.6-.2h1.3a1.37,1.37,0,0,1,1.1.4,1.39,1.39,0,0,1,.5,1Zm23.6-9.4,8-27.3a3.15,3.15,0,0,1,1.7-.9,15.16,15.16,0,0,1,2.3-.2h1.1a2,2,0,0,1,.9.2,1,1,0,0,1,.6.5,1.62,1.62,0,0,1,0,1L1612,351.9a1,1,0,0,1-.6.7,2.92,2.92,0,0,1-.9.2,23.28,23.28,0,0,1-2.9-.2,2.11,2.11,0,0,1-1.5-.6l-12.2-36.5a1.35,1.35,0,0,1,0-.9,1.21,1.21,0,0,1,.5-.5c.2-.2.5-.2.7-.3a2,2,0,0,1,.7-.1h1.6a7.72,7.72,0,0,1,1.5.2,3.37,3.37,0,0,1,1.2.4,1.34,1.34,0,0,1,.6.7l8.1,27.1c.1.4.2.9.3,1.4a5.07,5.07,0,0,0,.2,1.3c0-.4.1-.8.1-1.3A2.3,2.3,0,0,1,1609.6,342.1Zm22.3,8.5V315.1a1.1,1.1,0,0,1,.5-1,2,2,0,0,1,1.1-.3h21.1a1.39,1.39,0,0,1,1,.5,1.5,1.5,0,0,1,.4,1.1v1.1a6.75,6.75,0,0,1-.2,1.4,8.11,8.11,0,0,1-.3,1.1c-.1.3-.3.5-.5.5h-16.7v10.2h14.5a1.19,1.19,0,0,1,.9.5,1.43,1.43,0,0,1,.4,1,4.48,4.48,0,0,1-.1,1.1c0,.5-.1.9-.1,1.4a5.31,5.31,0,0,1-.3,1.1c-.2.3-.3.5-.5.5h-14.7V346h16.4a1.39,1.39,0,0,1,1,.5,1.5,1.5,0,0,1,.4,1.1v1.1a6.75,6.75,0,0,1-.2,1.4,8.11,8.11,0,0,1-.3,1.1c-.1.3-.3.5-.5.5h-20.7a2.82,2.82,0,0,1-1.5-.4C1632.2,351.1,1631.9,350.9,1631.9,350.6Zm32.2.6V315.1a1.05,1.05,0,0,1,.5-.9,1.5,1.5,0,0,1,1.1-.4h11.6a36.13,36.13,0,0,1,6.2.5,9,9,0,0,1,4.2,1.8,7.68,7.68,0,0,1,2.3,3.5,17.78,17.78,0,0,1,.7,5.6v1.1a18.5,18.5,0,0,1-.4,4.3,10.23,10.23,0,0,1-1.3,3.2,5.56,5.56,0,0,1-2.2,2.1,14.17,14.17,0,0,1-3.3,1.2l7.3,12.6a3.55,3.55,0,0,1,.6,1.6.55.55,0,0,1-.3.5c-.2.2-.4.2-.6.3a1.48,1.48,0,0,1-.7.1h-1.7a7.72,7.72,0,0,1-1.5-.2,5.73,5.73,0,0,1-1.4-.4,3.51,3.51,0,0,1-.9-.7l-7.8-13.2H1670V351a1.39,1.39,0,0,1-.5,1,2.1,2.1,0,0,1-1.1.4h-1.2a8.75,8.75,0,0,1-1.6-.2,5,5,0,0,1-1.3-.4C1664.3,351.6,1664.1,351.4,1664.1,351.2Zm13.6-31.8h-7.3v12.7h7.3a30.09,30.09,0,0,0,3.5-.2,5.28,5.28,0,0,0,2-.9,2.59,2.59,0,0,0,.9-1.7,11.9,11.9,0,0,0,.2-2.9v-1.1a23.64,23.64,0,0,0-.2-3,3.84,3.84,0,0,0-.9-1.8,4.65,4.65,0,0,0-2-.9A30.09,30.09,0,0,0,1677.7,319.4Zm22.4,27a6.3,6.3,0,0,0,1.3.3c.6.1,1.2.3,2,.4s1.6.2,2.5.4a19,19,0,0,0,5.5,0,8.47,8.47,0,0,0,2.4-.8,6.12,6.12,0,0,0,1.7-1.5,4.14,4.14,0,0,0,.6-2.3,4.54,4.54,0,0,0-1.2-3.2,13.52,13.52,0,0,0-3.1-2.5,31.49,31.49,0,0,0-4.1-2.3,36.22,36.22,0,0,1-4.1-2.7,13.89,13.89,0,0,1-3.1-3.7,9.57,9.57,0,0,1-1.3-5.2,9.86,9.86,0,0,1,.9-4.4,8.77,8.77,0,0,1,2.5-2.9,11.43,11.43,0,0,1,3.9-1.6,19.72,19.72,0,0,1,5-.5h1.8a22.86,22.86,0,0,1,2.5.2l2.6.3a5.25,5.25,0,0,1,2.1.6,1.74,1.74,0,0,1,.9.7,3.78,3.78,0,0,1,.1,1.2,7,7,0,0,1-.6,2.3,1.17,1.17,0,0,1-1.3.8,20.77,20.77,0,0,0-3-.5,21.69,21.69,0,0,0-3.8-.3,11.38,11.38,0,0,0-5.3,1,3.25,3.25,0,0,0-2.1,3.2,4.41,4.41,0,0,0,1.2,3,16.7,16.7,0,0,0,3.1,2.4c1.2.7,2.6,1.5,4.1,2.3a27.07,27.07,0,0,1,4.1,2.8,14.35,14.35,0,0,1,3.1,3.8,10.42,10.42,0,0,1,1.3,5.5,10.57,10.57,0,0,1-1.1,5,7.86,7.86,0,0,1-3,3,14.72,14.72,0,0,1-4.3,1.6,28.48,28.48,0,0,1-5.1.4,20.9,20.9,0,0,1-2.5-.1,22.75,22.75,0,0,1-2.6-.2,17.16,17.16,0,0,1-2.4-.4,7.39,7.39,0,0,1-1.9-.5c-.5-.2-.9-.4-.9-.6a3.45,3.45,0,0,1-.1-1.2,9.05,9.05,0,0,1,.6-2.6C1699.2,346.6,1699.6,346.3,1700.1,346.4Zm36.7,5.1a1.1,1.1,0,0,1-.5,1,1.5,1.5,0,0,1-1.1.4h-1.3a8.75,8.75,0,0,1-1.6-.2,5,5,0,0,1-1.3-.4c-.4-.1-.6-.3-.6-.5V314.9q0-.3.6-.6a5,5,0,0,1,1.3-.3c.5-.1,1-.1,1.6-.2h1.3a1.37,1.37,0,0,1,1.1.4,1.39,1.39,0,0,1,.5,1Zm25.2-30.1v31.4a1.1,1.1,0,0,1-.5,1,1.5,1.5,0,0,1-1.1.4h-1.3a7.77,7.77,0,0,1-1.6-.2,5,5,0,0,1-1.3-.4c-.4-.1-.5-.3-.5-.5V321.4H1746a1.39,1.39,0,0,1-1-.5,1.5,1.5,0,0,1-.4-1.1v-1.1a6.75,6.75,0,0,1,.2-1.4,8.11,8.11,0,0,1,.3-1.1c.1-.3.3-.5.5-.5h26a1.39,1.39,0,0,1,1,.5,2.1,2.1,0,0,1,.4,1.1v1.1a6.75,6.75,0,0,1-.2,1.4,2.9,2.9,0,0,1-.3,1.1c-.1.3-.3.5-.5.5Zm32.9,17v13.1a1.1,1.1,0,0,1-.5,1,1.5,1.5,0,0,1-1.1.4h-1.2a10,10,0,0,1-1.6-.2,5,5,0,0,1-1.3-.4c-.4-.1-.5-.3-.5-.5V338.4L1777.2,316c-.4-.8-.5-1.4-.2-1.7s.8-.5,1.6-.5h1.5a5.9,5.9,0,0,1,1.4.2c.5,0,.8.2,1.1.2s.5.2.6.5l8.5,17.2,8.4-17.2a1,1,0,0,1,.7-.5c.3-.1.7-.2,1.1-.3s.9-.1,1.4-.2h1.5a2,2,0,0,1,1.6.5,1.82,1.82,0,0,1-.2,1.7ZM1526.7,225.9c19.9,0,26,10.5,26,37.2s-6.2,37.2-26.1,37.2h-25.5V225.9Zm-9.4,61.3h7.1c11.6,0,13.1-6.8,13.1-24.6S1536,238,1524.4,238h-7.1Zm44.2-61.3h40.2v12.6h-24.5v15.9h22.5v13h-22.5v19.8h24.5v13.1h-40.2Zm85.5,57.9h-21.6l-3.9,16.5h-15.6l21-74.4h19.8l20.7,74.4H1651Zm-1.8-13.1-7.5-30.8-7.8,30.8Zm27-44.8h15.5v32.3l19.4-32.3h16.2l-21.5,34.2,21.5,40.2h-18l-17.6-36.2v36.2h-15.5Zm58.3,0h15.1v74.4h-15.1Zm39.6,25.7v48.7h-13.5V225.9h18.7l18,45.8V225.9h13.6v74.4h-17ZM1607.8,95.3h91.5v62.5a45.75,45.75,0,0,1-91.5,0Zm7.4,73.1h11.7l-5.8-10Zm19.2,0h8.8l-13.8-24.2-4.6,7.6Zm16.4,0h8.6l-21.9-38.3-4.5,7.6Zm16.3,0h8.3l-29.8-52.1-4.4,7.3Zm16,0h8.6l-38.1-66.2-4.4,7.5Z" transform="translate(-1401.9 0)"/></g></g></g></svg>